<?xml version="1.0" encoding="UTF-8"?>
<svg width="795px" height="772px" viewBox="0 0 795 772" version="1.1" xmlns="http://www.w3.org/2000/svg" xmlns:xlink="http://www.w3.org/1999/xlink">
    <!-- Generator: Sketch 60.1 (88133) - https://sketch.com -->
    <title>Artboard</title>
    <desc>Created with Sketch.</desc>
    <g id="Artboard" stroke="none" stroke-width="1" fill="none" fill-rule="evenodd">
        <path d="M395,144.280418 C383.859375,144.280418 340.115885,106.853612 263.769531,32 C255.66276,32 241.500533,40.9753502 221.282849,58.9260507 C191.86559,112.661545 147.605847,231.790658 88.5036223,416.313391 L148.67368,516.850801 C185.313102,581.510697 206.925781,600.091947 213.511719,572.594551 C220.097656,545.097155 236.85026,469.650754 263.769531,346.255347 L213.511719,718.089844 C215.99349,732.214844 228.692708,739.277344 251.609375,739.277344 C274.526042,739.277344 322.322917,739.277344 395,739.277344 C395,342.612727 395,144.280418 395,144.280418 Z" id="Path" fill="#A4CCF2"></path>
        <path d="M701.496378,144.280418 C690.355753,144.280418 646.612263,106.853612 570.265909,32 C562.159138,32 547.996911,40.9753502 527.779226,58.9260507 C498.361967,112.661545 454.102225,231.790658 395,416.313391 L455.170058,516.850801 C491.809479,581.510697 513.422159,600.091947 520.008096,572.594551 C526.594034,545.097155 543.346638,469.650754 570.265909,346.255347 L520.008096,718.089844 C522.489867,732.214844 535.189086,739.277344 558.105753,739.277344 C581.022419,739.277344 628.819294,739.277344 701.496378,739.277344 C701.496378,342.612727 701.496378,144.280418 701.496378,144.280418 Z" id="Path" fill="#7D9FBD" transform="translate(548.248189, 385.638672) scale(-1, 1) translate(-548.248189, -385.638672) "></path>
        <polygon id="Path-2" fill="#C22B7F" points="254.794082 259.383513 263.765255 346.255347 256.231074 402.207295 534.794082 402.207295 527.600438 346.255347 534.794082 259.383513"></polygon>
        <polygon id="Path-3" fill="#F1ADD3" points="258.697543 295.525099 263.071981 339.003282 528.306915 339.003282 531.949172 295.525099"></polygon>
        <polygon id="Path-4" fill="#82A7CA" points="254.794082 259.383513 249.002404 241.526743 258.697543 259.383513"></polygon>
        <polygon id="Path-4" fill="#A4CCF2" transform="translate(535.847569, 250.455128) scale(-1, 1) translate(-535.847569, -250.455128) " points="536.791678 259.383513 531 241.526743 540.695139 259.383513"></polygon>
    </g>
</svg>